<?xml version="1.0" encoding="utf-8" ?><svg xmlns="http://www.w3.org/2000/svg" xmlns:xlink="http://www.w3.org/1999/xlink" width="1024" height="1024" viewBox="0 0 1024 1024"><path d="M0 0L1024 0L1024 1024L0 1024L0 0Z"/><defs><linearGradient id="gradient_0" gradientUnits="userSpaceOnUse" x1="628.50208" y1="456.96753" x2="524.8374" y2="445.75858"><stop offset="0" stop-color="#50BFBB"/><stop offset="1" stop-color="#769FC6"/></linearGradient></defs><path fill="url(#gradient_0)" d="M552.342 398.45C549.925 397.7 550.169 398.204 549.05 396.559C549.005 388.708 556.572 375.792 562.191 370.062C571.566 360.543 584.384 355.209 597.745 355.267C624.252 355.159 645.295 373.605 646.212 400.146C646.247 401.173 646.152 401.539 645.545 402.394C644.066 402.808 644.262 402.588 642.588 402.197C640.257 401.557 636.858 401.382 634.374 401.154C627.856 401.04 624.066 401.443 617.743 403.391C612.648 386.556 600.986 375.336 581.68 380.229C577.958 381.172 569.254 386.225 571.243 391.7C575.037 399.368 581.283 391.669 583.946 390.352C593.713 385.52 609.02 396.565 606.649 407.279C605.175 414.226 586.462 422.207 602.187 427.52C611.28 418.055 617.371 412.085 631.667 411.725C642.463 411.539 652.897 415.613 660.708 423.066C668.723 430.864 671.582 439.402 671.859 450.504C671.924 453.133 671.838 455.627 670.41 457.857C669.151 458.249 669.28 457.948 667.676 457.173C659.77 453.606 654.746 453.346 646.215 453.264C644.87 453.486 645.513 453.576 644.286 452.997C639.821 444.525 633.776 440.15 625.215 436.64C602.538 431.861 591.253 445.064 589.062 465.759C594.01 465.615 598.616 468.273 600.968 472.628C603.32 476.983 603.017 482.293 600.184 486.352C597.35 490.411 592.471 492.526 587.572 491.82C591.271 494.861 595.48 494.947 599.99 493.743C606.869 489.784 608.859 484.879 609.86 477.391C609.199 468.606 606.67 465.684 600.221 460.305C601.508 455.584 602.208 453.761 605.518 450.201C609.483 447.102 614.842 444.868 619.958 445.948C636.201 449.376 640.447 468.804 637.665 482.874C635.457 494.27 628.792 504.313 619.15 510.776C609.578 517.098 589.742 525.156 578.665 530.923C573.923 533.392 552.124 544.235 548.047 545.557C544.234 546.781 540.171 547.012 536.243 546.227C529.878 544.971 524.807 541.225 521.399 535.745C519.57 532.799 518.345 529.519 517.797 526.096C517.058 521.359 517.234 506.813 517.342 501.458C517.521 492.619 516.989 480.837 517.525 472.228L518.217 471.477L521.068 471.405C524.873 471.578 529.472 471.486 533.34 471.513C536.592 468.277 542.326 461.191 545.602 457.448C549.928 458.937 553.534 459.508 557.891 457.496C561.058 456.06 563.474 453.356 564.544 450.048C565.97 445.654 564.806 442.042 562.74 438.183C567.698 433.608 572.942 429.353 578.441 425.444C575.477 412.9 565.727 400.398 552.342 398.45Z"/><path fill="#6FC8CA" d="M605.518 450.201C609.483 447.102 614.842 444.868 619.958 445.948C636.201 449.376 640.447 468.804 637.665 482.874C635.457 494.27 628.792 504.313 619.15 510.776C609.578 517.098 589.742 525.156 578.665 530.923C573.923 533.392 552.124 544.235 548.047 545.557C544.234 546.781 540.171 547.012 536.243 546.227C529.878 544.971 524.807 541.225 521.399 535.745C519.57 532.799 518.345 529.519 517.797 526.096C517.058 521.359 517.234 506.813 517.342 501.458C517.521 492.619 516.989 480.837 517.525 472.228L518.217 471.477L521.068 471.405C521.334 482.385 521.425 493.368 521.342 504.351C521.342 509.991 520.987 523.343 522.136 527.917C523.075 531.563 525.053 534.857 527.829 537.4C531.767 541.061 537.019 542.974 542.389 542.704C548.87 542.333 573.793 529.415 579.971 525.804C584.524 517.235 596.519 503.164 599.99 493.743C606.869 489.784 608.859 484.879 609.86 477.391C609.199 468.606 606.67 465.684 600.221 460.305C601.508 455.584 602.208 453.761 605.518 450.201Z"/><path fill="#91DCDD" d="M605.518 450.201C609.483 447.102 614.842 444.868 619.958 445.948C636.201 449.376 640.447 468.804 637.665 482.874C635.457 494.27 628.792 504.313 619.15 510.776C609.578 517.098 589.742 525.156 578.665 530.923C573.923 533.392 552.124 544.235 548.047 545.557C544.234 546.781 540.171 547.012 536.243 546.227C529.878 544.971 524.807 541.225 521.399 535.745C519.57 532.799 518.345 529.519 517.797 526.096C517.058 521.359 517.234 506.813 517.342 501.458C517.521 492.619 516.989 480.837 517.525 472.228L518.217 471.477L521.068 471.405C521.334 482.385 521.425 493.368 521.342 504.351C521.342 509.991 520.987 523.343 522.136 527.917C523.075 531.563 525.053 534.857 527.829 537.4C531.767 541.061 537.019 542.974 542.389 542.704C548.87 542.333 573.793 529.415 579.971 525.804C584.02 524.346 592.182 520.239 596.294 518.222C609.543 511.686 623.91 506.588 630.333 492.083C636.692 477.725 637.165 456.943 620.388 449.728C614.768 449.702 612.374 450.192 606.761 451.123L605.518 450.201Z"/><path fill="#49C0B9" d="M605.518 450.201L606.761 451.123C612.374 450.192 614.768 449.702 620.388 449.728C616.758 457.203 614.274 465.69 610.53 473.142C609.533 475.125 610.468 476.142 609.86 477.391C609.199 468.606 606.67 465.684 600.221 460.305C601.508 455.584 602.208 453.761 605.518 450.201Z"/><path fill="#6FC8CA" d="M602.187 427.52C611.28 418.055 617.371 412.085 631.667 411.725C642.463 411.539 652.897 415.613 660.708 423.066C668.723 430.864 671.582 439.402 671.859 450.504C671.924 453.133 671.838 455.627 670.41 457.857C669.151 458.249 669.28 457.948 667.676 457.173C659.77 453.606 654.746 453.346 646.215 453.264C644.87 453.486 645.513 453.576 644.286 452.997C639.821 444.525 633.776 440.15 625.215 436.64C624.791 433.076 631.178 419.872 629.604 415.739C617.626 417.116 606.429 428.559 602.874 428.125L602.187 427.52Z"/><path fill="#91DCDD" d="M602.187 427.52C611.28 418.055 617.371 412.085 631.667 411.725C642.463 411.539 652.897 415.613 660.708 423.066C668.723 430.864 671.582 439.402 671.859 450.504C671.924 453.133 671.838 455.627 670.41 457.857C669.151 458.249 669.28 457.948 667.676 457.173C668.648 447.678 667.456 441.37 663.097 433.023C657.531 422.472 641.454 413.746 629.604 415.739C617.626 417.116 606.429 428.559 602.874 428.125L602.187 427.52Z"/><path fill="#49C0B9" d="M646.215 453.264C647.617 453.024 648.41 452.845 649.753 452.49C651.71 449.847 662.369 434.924 663.097 433.023C667.456 441.37 668.648 447.678 667.676 457.173C659.77 453.606 654.746 453.346 646.215 453.264Z"/><path fill="#91DCDD" d="M552.342 398.45C549.925 397.7 550.169 398.204 549.05 396.559C549.005 388.708 556.572 375.792 562.191 370.062C571.566 360.543 584.384 355.209 597.745 355.267C624.252 355.159 645.295 373.605 646.212 400.146C646.247 401.173 646.152 401.539 645.545 402.394C644.066 402.808 644.262 402.588 642.588 402.197C640.257 401.557 636.858 401.382 634.374 401.154C634.757 397.133 636.325 386.033 637.84 382.857C632.897 372.536 624.549 365.646 613.774 361.866C601.887 357.609 588.786 358.32 577.429 363.838C566.51 368.986 558.163 378.364 554.313 389.805C553.396 392.49 552.535 395.624 552.342 398.45Z"/><path fill="#6FC8CA" d="M634.374 401.154C634.757 397.133 636.325 386.033 637.84 382.857C641.353 390.205 641.927 394.097 642.588 402.197C640.257 401.557 636.858 401.382 634.374 401.154Z"/><path fill="#A67FCF" d="M589.062 465.759C594.01 465.615 598.616 468.273 600.968 472.628C603.32 476.983 603.017 482.293 600.184 486.352C597.35 490.411 592.471 492.526 587.572 491.82C584.772 491.416 582.177 490.116 580.177 488.115C579.111 487.049 578.237 485.807 577.594 484.444C575.708 480.447 575.965 475.768 578.276 472.001C580.588 468.234 584.644 465.887 589.062 465.759Z"/><path d="M577.594 484.444C578.237 485.807 579.111 487.049 580.177 488.115C572.462 493.558 562.71 500.314 555.549 506.233C555.729 515.057 548.461 520.183 543.055 512.123C539.006 506.085 543.695 499.433 552.416 502.316C560.829 496.69 569.113 489.905 577.594 484.444Z"/><defs><linearGradient id="gradient_1" gradientUnits="userSpaceOnUse" x1="510.1243" y1="458.07431" x2="373.61026" y2="439.60071"><stop offset="0" stop-color="#9486C8"/><stop offset="1" stop-color="#AD6DCE"/></linearGradient></defs><path fill="url(#gradient_1)" d="M381.579 401.719C380.183 402.075 379.9 402.265 378.47 402.045C378.283 401.692 378.043 401.303 378.03 400.889C376.831 359.684 429.285 341.456 458.27 367.154C466.479 374.432 473.542 385.634 474.357 396.806C473.477 398.062 473.202 397.762 471.305 398.307C463.346 399.882 456.338 404.55 451.818 411.287C448.871 415.592 447.205 419.944 445.47 424.813C450.441 429.347 456.146 433.891 460.869 438.45C458.916 442.321 457.9 446.054 459.378 450.361C460.415 453.374 462.625 455.839 465.506 457.199C469.961 459.352 473.682 458.822 478.161 457.287L490.474 471.631L506.409 471.57C506.324 482.99 506.305 494.41 506.353 505.83C506.36 509.404 506.578 520.443 506.062 523.584C506.178 528.746 503.841 534.332 500.547 538.26C496.45 543.178 490.521 546.208 484.134 546.647C481.522 546.83 477.607 546.476 475.225 545.36C459.16 537.833 443.236 529.748 427.19 522.152C418.826 518.193 407.239 513.304 400.382 507.401C391.638 499.867 386.288 489.136 385.532 477.619C384.652 463.973 389.911 446.806 406.459 445.877C411.233 445.609 415.148 447.552 418.569 450.794C421.792 454.013 422.32 455.99 423.831 460.179C418.485 464.366 414.204 468.252 413.49 475.669C412.977 480.745 414.615 485.803 418.006 489.614C423.118 495.254 430.373 495.802 436.504 491.442C431.613 492.213 426.703 490.172 423.801 486.16C420.898 482.149 420.494 476.847 422.755 472.442C425.016 468.037 429.559 465.275 434.51 465.295C434.24 455.206 430.789 445.872 422.033 440.001C415.825 435.865 408.192 434.458 400.918 436.109C390.299 438.439 384.796 444.705 379.206 453.383C376.287 453.209 373.544 453.289 370.627 453.335C365.956 453.831 359.972 455.116 355.793 457.277C354.206 457.915 354.983 457.91 353.433 457.694C352.255 455.995 352.23 451.724 352.126 449.527C351.685 440.127 355.759 430.827 362.157 424.014C369.291 416.421 379.142 411.962 389.554 411.613C405.324 411.145 411.165 417.414 421.313 427.008C423.187 426.839 427.062 425.914 427.565 423.917C429.357 417.595 418.24 413.047 417.038 408.016C415.13 400.031 422.521 391.463 430.081 389.813C437.739 388.141 439.866 390.18 445.444 394.541C446.256 395.177 448.374 395.071 449.219 394.631C452.001 393.94 453.497 389.769 451.917 387.535C444.471 377.007 428.836 376.802 418.832 383.491C411.261 388.552 407.974 394.595 406.187 403.18C403.235 402.425 399.898 401.819 396.885 401.211C390.723 400.76 387.641 400.683 381.579 401.719Z"/><path fill="#A67FCF" d="M381.579 401.719C380.183 402.075 379.9 402.265 378.47 402.045C378.283 401.692 378.043 401.303 378.03 400.889C376.831 359.684 429.285 341.456 458.27 367.154C466.479 374.432 473.542 385.634 474.357 396.806C473.477 398.062 473.202 397.762 471.305 398.307C466.577 376.501 454.533 363.157 432.031 359.318C430.073 359.405 428.036 359.156 426.806 360.48C415.637 372.503 406.438 388.742 396.885 401.211C390.723 400.76 387.641 400.683 381.579 401.719Z"/><path fill="#CEAFEB" d="M381.579 401.719C380.183 402.075 379.9 402.265 378.47 402.045C378.283 401.692 378.043 401.303 378.03 400.889C376.831 359.684 429.285 341.456 458.27 367.154C466.479 374.432 473.542 385.634 474.357 396.806C473.477 398.062 473.202 397.762 471.305 398.307C466.577 376.501 454.533 363.157 432.031 359.318C429.04 358.736 425.982 359.049 422.897 359.171C404.539 359.897 385.924 373.82 382.506 392.305C381.95 395.307 381.785 398.618 381.579 401.719Z"/><path fill="#A67FCF" d="M355.793 457.277C354.206 457.915 354.983 457.91 353.433 457.694C352.255 455.995 352.23 451.724 352.126 449.527C351.685 440.127 355.759 430.827 362.157 424.014C369.291 416.421 379.142 411.962 389.554 411.613C405.324 411.145 411.165 417.414 421.313 427.008C420.716 427.573 419.627 429.029 418.778 428.504C412.06 424.354 408.612 418.6 400.407 416.608C396.303 415.612 393.837 415.344 389.537 415.299C382.215 428.439 376.614 439.408 370.627 453.335C365.956 453.831 359.972 455.116 355.793 457.277Z"/><path fill="#CEAFEB" d="M355.793 457.277C354.206 457.915 354.983 457.91 353.433 457.694C352.255 455.995 352.23 451.724 352.126 449.527C351.685 440.127 355.759 430.827 362.157 424.014C369.291 416.421 379.142 411.962 389.554 411.613C405.324 411.145 411.165 417.414 421.313 427.008C420.716 427.573 419.627 429.029 418.778 428.504C412.06 424.354 408.612 418.6 400.407 416.608C396.303 415.612 393.837 415.344 389.537 415.299C367.369 417.229 353.081 435.199 355.793 457.277Z"/><path fill="#CEAFEB" d="M506.062 523.584C506.178 528.746 503.841 534.332 500.547 538.26C496.45 543.178 490.521 546.208 484.134 546.647C481.522 546.83 477.607 546.476 475.225 545.36C459.16 537.833 443.236 529.748 427.19 522.152C418.826 518.193 407.239 513.304 400.382 507.401C391.638 499.867 386.288 489.136 385.532 477.619C384.652 463.973 389.911 446.806 406.459 445.877C411.233 445.609 415.148 447.552 418.569 450.794L417.221 451.623C411.577 449.879 405.178 448.335 399.858 451.636C385.477 460.557 388.001 483.584 395.555 495.769C398.427 500.425 402.262 504.412 406.802 507.462C411.075 510.372 418.178 513.576 422.998 515.885L448.077 527.892C453.201 530.374 458.235 533.036 463.333 535.538C468.072 537.864 472.9 540.776 478.004 542.106C482.836 543.366 489.4 542.151 493.533 539.304C497.921 536.345 501.236 531.419 501.854 525.939C503.449 511.795 502.087 496.047 502.434 481.727C502.492 479.305 502.37 475.567 502.317 473.029C502.592 472.794 502.867 472.56 503.141 472.326L505.267 472.247C506.534 474.033 505.436 516.834 506.062 523.584Z"/><path fill="#6FC8CA" d="M434.51 465.295C439.043 465.313 443.246 467.664 445.635 471.515C448.024 475.367 448.262 480.177 446.265 484.245C445.671 485.455 444.895 486.567 443.963 487.541C441.971 489.623 439.351 490.994 436.504 491.442C431.613 492.213 426.703 490.172 423.801 486.16C420.898 482.149 420.494 476.847 422.755 472.442C425.016 468.037 429.559 465.275 434.51 465.295Z"/><path d="M446.265 484.245C454.304 490.152 463.079 497.265 471.52 502.247C472.612 502.891 479.63 499.216 481.907 506.187C485.21 516.299 468.677 520.085 468.547 509.106C468.509 505.93 467.746 505.714 465.304 503.615C458.937 498.062 449.973 493.316 443.963 487.541C444.895 486.567 445.671 485.455 446.265 484.245Z"/><defs><linearGradient id="gradient_2" gradientUnits="userSpaceOnUse" x1="672.15271" y1="591.6936" x2="522.21625" y2="580.18317"><stop offset="0" stop-color="#38CDB5"/><stop offset="1" stop-color="#6BA8C2"/></linearGradient></defs><path fill="url(#gradient_2)" d="M648.138 463.391C659.767 464.51 668.318 467.106 676.098 476.482C688.343 491.236 686.737 515.311 671.418 527.336C669.521 528.822 665.804 531.679 663.552 531.766C662.315 531.122 662.41 531.152 661.66 529.959C658.428 525.786 652.724 518.031 646.619 521.811C644.548 524.621 645.596 527.162 647.65 529.543C658.524 538.936 660.837 552.992 650.419 563.8C645.997 568.414 639.873 571.005 633.483 570.967C630.954 570.968 628.973 570.728 626.48 570.354L626.237 570.89C622.851 578.483 621.157 588.78 612.604 593.334C611.567 594.365 610.336 595.028 609.05 595.746C603.832 598.652 597.652 599.299 591.945 597.536C586.307 595.735 583.76 593.072 581.13 588.202C578.841 585.311 576.719 584.793 573.209 586.275C569.458 589.993 573.839 594.085 574.433 598.204C576.592 613.179 567.546 624.778 555.57 632.184L550.112 627.482C549.926 619.55 549.898 611.615 550.027 603.682L550.825 603.069C556.933 598.453 557.668 595.449 554.072 588.646C565.594 581.147 577.581 574.168 589.234 566.823C588.457 565.675 587.949 564.367 587.748 562.995C574.536 570.587 561.531 579.653 547.859 586.361C546.039 587.253 542.688 588.619 540.927 590.053C536.786 595.677 541 601.314 545.67 603.048L545.573 642.454C545.566 646.006 545.366 659.319 546.055 662.211L549.992 662.086C550.104 655.267 550.137 648.447 550.089 641.628C562.789 651.394 576.052 662.578 590.087 669.996C588.922 671.244 579.939 681.323 578.541 681.07C574.252 680.166 570.779 680.35 569.946 685.474C569.217 689.956 575.974 693.372 578.462 690.026C583.453 683.315 588.969 677.719 594.767 671.744C599.878 673.173 603.181 673.895 608.495 674.332C609.859 674.444 614.195 674.666 615.167 674.849C606.508 689.593 594.159 695.81 579.563 703.136C551.269 717.336 517.614 704.843 517.359 669.776L517.401 615.412C517.352 605.668 516.192 589.908 517.896 581.093C518.771 576.569 520.952 572.83 524.286 569.663C526.776 567.298 592.262 535.468 599.64 532.644C602.033 531.728 603.887 531.427 606.459 531.608C613.583 532.109 619.208 536.314 623.646 541.581C626.879 546.456 626.788 554.656 633.297 555.054C641.212 552.807 634.846 538.636 631.258 534.488C627.453 530.091 625.247 528.489 620.285 525.524C618.634 524.864 618.254 525.087 617.74 523.912C618.927 522.852 625.217 519.477 628.092 517.211C640.315 507.613 647.895 493.282 648.948 477.777C649.252 472.608 648.779 468.528 648.138 463.391Z"/><defs><linearGradient id="gradient_3" gradientUnits="userSpaceOnUse" x1="619.9826" y1="625.78729" x2="514.07947" y2="610.91223"><stop offset="0" stop-color="#81E2DA"/><stop offset="1" stop-color="#A2D0E1"/></linearGradient></defs><path fill="url(#gradient_3)" d="M615.167 674.849C606.508 689.593 594.159 695.81 579.563 703.136C551.269 717.336 517.614 704.843 517.359 669.776L517.401 615.412C517.352 605.668 516.192 589.908 517.896 581.093C518.771 576.569 520.952 572.83 524.286 569.663C526.776 567.298 592.262 535.468 599.64 532.644C602.033 531.728 603.887 531.427 606.459 531.608C613.583 532.109 619.208 536.314 623.646 541.581L623.037 543.127C620.981 542.981 612.721 533.96 604.702 535.837C593.694 538.413 584.443 544.065 574.073 549.196C558.866 556.721 542.382 563.952 527.529 572.12C522.693 574.78 521.137 583.551 521.269 588.469C521.746 606.139 520.851 624.036 521.408 641.604C521.966 659.2 517.475 680.892 530.589 694.456C536.971 701.064 545.711 704.873 554.896 705.05C569.914 705.241 591.786 694.164 602.857 683.955C604.979 681.998 608.708 677.056 611.216 675.246C612.814 675.085 614.131 674.953 615.167 674.849Z"/><path fill="#91DCDD" d="M648.138 463.391C659.767 464.51 668.318 467.106 676.098 476.482C688.343 491.236 686.737 515.311 671.418 527.336C669.521 528.822 665.804 531.679 663.552 531.766C662.315 531.122 662.41 531.152 661.66 529.959C662.621 529.306 663.575 528.641 664.52 527.965C689.906 509.732 683.17 472.356 652.426 467.898C653.354 482.824 651.591 493.27 643.321 506.218C638.522 513.731 629.334 523.633 620.285 525.524C618.634 524.864 618.254 525.087 617.74 523.912C618.927 522.852 625.217 519.477 628.092 517.211C640.315 507.613 647.895 493.282 648.948 477.777C649.252 472.608 648.779 468.528 648.138 463.391Z"/><path fill="#FEFEFE" d="M587.748 562.995C587.068 558.361 589.977 553.955 594.506 552.76C599.035 551.565 603.739 553.961 605.435 558.327C607.131 562.693 605.278 567.636 601.13 569.812C596.981 571.987 591.861 570.7 589.234 566.823C588.457 565.675 587.949 564.367 587.748 562.995Z"/><path fill="#FEFEFE" d="M546.055 662.211L549.992 662.086C558.955 665.315 559.226 675.612 552.992 679.2C543.078 684.906 529.897 667.047 546.055 662.211Z"/><path fill="#91DCDD" d="M647.65 529.543C658.524 538.936 660.837 552.992 650.419 563.8C645.997 568.414 639.873 571.005 633.483 570.967C630.954 570.968 628.973 570.728 626.48 570.354C625.45 569.381 625.094 569.315 624.831 567.992C626.565 565.929 632.905 567.278 635.744 566.766C650.742 564.059 656.524 550.62 650.289 537.16C649.221 534.855 647.123 531.93 647.65 529.543Z"/><path fill="#91DCDD" d="M581.13 588.202C583.52 588.66 585.641 590.352 587.641 591.756C594.336 596.458 602.491 595.152 609.521 592.046L609.652 592.412C605.447 594.67 604.97 594.681 600.297 595.398C596.589 595.966 590.715 593.108 589.129 595.218C590.761 597.038 594.414 597.235 596.684 597.639C603.103 598.781 607.384 594.394 612.248 592.977L612.604 593.334C611.567 594.365 610.336 595.028 609.05 595.746C603.832 598.652 597.652 599.299 591.945 597.536C586.307 595.735 583.76 593.072 581.13 588.202Z"/><defs><linearGradient id="gradient_4" gradientUnits="userSpaceOnUse" x1="507.284" y1="592.83411" x2="344.59564" y2="580.6875"><stop offset="0" stop-color="#8889C6"/><stop offset="1" stop-color="#B16DD0"/></linearGradient></defs><path fill="url(#gradient_4)" d="M360.984 531.464C360.625 531.603 359.975 531.69 359.567 531.766C356.585 530.779 354.68 529.37 352.303 527.376C344.866 521.165 340.266 512.202 339.556 502.538C338.735 492.913 341.838 483.364 348.161 476.06C355.621 467.466 364.68 464.127 375.745 463.332C375.24 467.861 374.797 472.314 374.947 476.88C375.541 492.398 382.845 506.893 394.964 516.604C397.379 518.553 404.239 522.704 405.137 523.551L404.841 524.425L402.486 525.557C394.762 530.628 389.576 536.241 387.126 545.54C385.656 551.118 388.483 559.282 395.21 552.692C396.664 551.267 397.146 546.482 398.628 544.088C401.622 538.489 406.464 534.59 412.519 532.643C415.538 531.672 419.296 531.056 422.423 531.87C429.424 533.691 445.965 542.944 453.338 546.57C466.967 553.274 481.155 559.423 494.505 566.616C499.762 569.448 503.829 573.381 505.558 579.27C507.166 584.747 507.024 668.493 505.929 677.391C505.379 681.862 503.793 686.265 501.557 690.168C496.531 698.94 488.095 705.019 478.367 707.558C461.405 711.985 444.919 704.803 430.467 696.352C424.92 693.108 410.615 681.85 409.019 675.369C408.976 675.192 408.97 675.008 408.946 674.827C409.57 674.577 409.832 674.412 410.485 674.305C416.365 674.982 423.054 673.317 428.665 671.787C432.063 675.137 435.515 678.719 438.965 681.982C441.165 682.686 444.984 690.096 445.088 690.159C455.481 696.466 458.22 677.407 445.828 681.239C443.974 681.812 435.343 671.676 433.794 669.994C446.626 663.496 461.696 650.763 473.704 641.664C473.828 646.836 472.797 657.204 474.745 661.254C476.236 662.392 475.408 662.112 477.338 662.054C479.002 660.039 478.372 610.126 478.471 603.593C483.774 600.091 485.923 597.744 483.863 591.329C481.631 588.745 473.265 585.605 469.846 583.559C462.614 579.231 455.464 574.755 448.266 570.377C444.82 568.282 439.633 564.827 435.994 563.447C435.778 564.502 435.379 565.511 434.816 566.429C444.591 573.586 459.142 581.391 469.959 588.62C466.23 595.928 467.608 598.894 473.904 603.56C473.932 610.939 474.164 620.243 473.76 627.487L467.966 632.607C456.253 624.46 446.87 612.599 449.497 597.607C450.453 592.148 456.944 583.951 443.585 585.095C439.014 597.772 427.461 601.706 415.541 596.112C407.097 592.149 402.674 585.474 399.656 576.976C398.728 571.175 397.912 570.496 392.272 570.557C391.186 570.616 390.099 570.646 389.011 570.647C383.143 570.622 377.233 567.815 373.243 563.55C368.887 558.854 366.645 552.578 367.042 546.184C367.556 537.826 371.582 533.283 377.335 528.109C378.322 526.358 378.329 526.467 378.171 524.486C372.963 514.2 364.636 526.501 360.984 531.464Z"/><defs><linearGradient id="gradient_5" gradientUnits="userSpaceOnUse" x1="508.20633" y1="624.04706" x2="394.99933" y2="617.12695"><stop offset="0" stop-color="#BBB6E4"/><stop offset="1" stop-color="#D1ABF2"/></linearGradient></defs><path fill="url(#gradient_5)" d="M398.628 544.088C401.622 538.489 406.464 534.59 412.519 532.643C415.538 531.672 419.296 531.056 422.423 531.87C429.424 533.691 445.965 542.944 453.338 546.57C466.967 553.274 481.155 559.423 494.505 566.616C499.762 569.448 503.829 573.381 505.558 579.27C507.166 584.747 507.024 668.493 505.929 677.391C505.379 681.862 503.793 686.265 501.557 690.168C496.531 698.94 488.095 705.019 478.367 707.558C461.405 711.985 444.919 704.803 430.467 696.352C424.92 693.108 410.615 681.85 409.019 675.369C408.976 675.192 408.97 675.008 408.946 674.827C409.57 674.577 409.832 674.412 410.485 674.305C414.297 675.658 420.074 684.528 424.216 687.403C444.191 701.266 471.936 714.733 492.796 694.663C499.124 688.574 502.316 681.176 502.367 672.417C502.529 643.179 502.701 613.868 502.337 584.634C502.491 579.727 499.557 574.097 495.225 571.631C484.038 565.261 471.833 559.813 460.266 554.151L436.892 542.696C424.172 536.463 418.006 531.206 404.737 540.886C403.03 542.131 401.56 543.602 399.723 544.632L398.628 544.088Z"/><path fill="#CEAFEB" d="M360.984 531.464C360.625 531.603 359.975 531.69 359.567 531.766C356.585 530.779 354.68 529.37 352.303 527.376C344.866 521.165 340.266 512.202 339.556 502.538C338.735 492.913 341.838 483.364 348.161 476.06C355.621 467.466 364.68 464.127 375.745 463.332C375.24 467.861 374.797 472.314 374.947 476.88C375.541 492.398 382.845 506.893 394.964 516.604C397.379 518.553 404.239 522.704 405.137 523.551L404.841 524.425L402.486 525.557C397.692 524.172 390.94 518.581 387.538 514.944C373.678 500.129 370.784 486.818 371.049 467.505C367.245 468.436 365.857 468.838 362.274 470.37C361.287 474.965 359.187 479.605 357.788 484.052C354.95 493.067 349.741 508.34 348.726 517.356C352.847 525.147 360.457 526.684 360.984 531.464Z"/><path fill="#A67FCF" d="M348.726 517.356C338.569 500.267 343.888 478.949 362.274 470.37C361.287 474.965 359.187 479.605 357.788 484.052C354.95 493.067 349.741 508.34 348.726 517.356Z"/><path fill="#FEFEFE" d="M434.816 566.429C432.303 570.522 427.078 572.016 422.782 569.869C418.485 567.722 416.543 562.647 418.309 558.18C420.075 553.713 424.962 551.337 429.565 552.708C434.169 554.079 436.96 558.742 435.994 563.447C435.778 564.502 435.379 565.511 434.816 566.429Z"/><path fill="#CEAFEB" d="M377.335 528.109C378.168 531.802 361.251 553.997 379.692 564.56C382.922 566.41 391.115 568.434 392.272 570.557C391.186 570.616 390.099 570.646 389.011 570.647C383.143 570.622 377.233 567.815 373.243 563.55C368.887 558.854 366.645 552.578 367.042 546.184C367.556 537.826 371.582 533.283 377.335 528.109Z"/><path fill="#CEAFEB" d="M399.656 576.976C400.256 577.104 400.857 577.232 401.457 577.361C408.518 586.436 412.725 594.963 425.605 594.919C436.215 594.883 436.9 587.862 443.585 585.095C439.014 597.772 427.461 601.706 415.541 596.112C407.097 592.149 402.674 585.474 399.656 576.976Z"/><path fill="#A67FCF" d="M472.041 662.39C476.656 662.207 480.531 662.3 483.471 666.438C484.77 668.23 485.259 670.484 484.819 672.654C484.127 676.007 482.271 677.69 479.567 679.456C468.907 683.092 461.434 671.165 472.041 662.39Z"/><path fill="#A67FCF" d="M414.459 607.161C424.994 609.595 428.616 609.366 438.87 606.018C440.044 612.938 440.793 615.479 443.617 621.884C440.39 624.912 437.202 627.982 434.053 631.092C428.559 631.156 415.138 630.794 410.583 631.457C409.799 632.812 410.1 632.935 410.121 634.756L410.585 635.443C415.538 636.009 430.551 635.7 436.121 635.548C439.107 632.584 442.956 628.533 446.038 625.822C450.006 630.797 451.842 633.02 456.7 637.013C457.599 637.743 457.889 638.125 458.654 639.007L458.394 639.808C454.355 643.78 449.153 647.232 444.658 650.726C435.666 657.716 427.227 662.663 415.739 663.943C402.037 665.437 388.314 661.318 377.699 652.526C363.495 640.952 357.562 624.92 355.722 607.186L359.668 610.32C379.992 621.722 396.397 623.572 414.459 607.161Z"/><path fill="#CEAFEB" d="M355.722 607.186L359.668 610.32C364.851 628.873 368.339 643.835 387.037 654.478C397.575 660.508 410.096 662.042 421.778 658.735C437.579 654.176 444.272 643.877 456.7 637.013C457.599 637.743 457.889 638.125 458.654 639.007L458.394 639.808C454.355 643.78 449.153 647.232 444.658 650.726C435.666 657.716 427.227 662.663 415.739 663.943C402.037 665.437 388.314 661.318 377.699 652.526C363.495 640.952 357.562 624.92 355.722 607.186Z"/><path fill="#FEFEFE" d="M397.513 624.061C404.02 623.421 406.336 624.383 409.477 630.103L409.426 636.855C407.309 639.919 406.378 640.695 403.038 642.344C390.767 643.323 386.57 630.691 397.513 624.061Z"/><path fill="#49C0B9" d="M585.435 606.29C594.23 609.769 600.468 609.478 609.412 606.957C626.494 623.215 643.924 621.621 663.459 610.612L667.703 607.625C664.837 639.47 643.509 666.264 609.042 664.058C591.541 662.938 577.892 649.65 564.377 639.461C565.453 638.519 566.525 637.548 567.638 636.655C571.89 632.956 574.487 630.2 577.887 625.775C581.038 628.761 584.837 633.07 588.241 635.553C596.907 635.652 605.714 635.574 614.392 635.58L614.315 631.274C606.478 631.038 597.736 631.218 589.828 631.209C586.754 628.249 583.557 624.723 580.601 621.595C582.971 616.189 584.09 612.001 585.435 606.29Z"/><path fill="#91DCDD" d="M663.459 610.612L667.703 607.625C664.837 639.47 643.509 666.264 609.042 664.058C591.541 662.938 577.892 649.65 564.377 639.461C565.453 638.519 566.525 637.548 567.638 636.655C580.533 645.162 588.566 657.532 605.997 659.762C637.23 663.757 659.654 640.563 663.459 610.612Z"/><path fill="#A67FCF" d="M614.315 631.274C615.685 626.444 620.26 622.858 625.134 624.658C641.567 630.727 625.083 653.404 614.392 635.58L614.315 631.274Z"/><path fill="#49C0B9" d="M682.101 531.543L683.219 531.135C685.558 533.161 686.883 545.751 687.115 549.014C689.023 575.773 665.208 606.005 638.216 608.604C633.492 609.059 622.425 606.279 619.612 601.963C619.813 600.854 619.667 601.143 620.172 600.178C626.167 597.774 631.261 586.972 633.464 581.358C656.595 579.971 668.242 564.521 666.934 542.008C672.411 539.536 678.295 536.293 682.101 531.543Z"/><path fill="#91DCDD" d="M682.101 531.543L683.219 531.135C685.558 533.161 686.883 545.751 687.115 549.014C689.023 575.773 665.208 606.005 638.216 608.604C633.492 609.059 622.425 606.279 619.612 601.963C619.813 600.854 619.667 601.143 620.172 600.178C625.205 602.172 629.311 604.838 634.921 604.785C660.464 604.54 683.925 575.41 683.136 550.741C682.935 544.453 682.011 538.211 682.09 532.057L682.101 531.543Z"/><path fill="#A67FCF" d="M402.402 599.967C403.571 600.715 403.657 600.629 404.292 601.824L403.778 602.837C396.764 607.432 389.402 610.088 381.36 608.045C351.495 600.46 330.398 568.423 338.057 537.851C338.647 535.494 338.811 532.613 340.779 531.271L343.295 533.57C348.303 537.675 350.7 539.072 356.567 541.866C356.025 565.436 366.362 578.632 390.061 581.553C393.172 589.591 395.632 594.306 402.402 599.967Z"/><path fill="#CEAFEB" d="M402.402 599.967C403.571 600.715 403.657 600.629 404.292 601.824L403.778 602.837C396.764 607.432 389.402 610.088 381.36 608.045C351.495 600.46 330.398 568.423 338.057 537.851C338.647 535.494 338.811 532.613 340.779 531.271L343.295 533.57C340.765 544.234 338.972 553.517 342.219 564.991C347.664 584.229 371.755 610.129 393.904 603.646C396.482 602.891 399.603 600.825 402.402 599.967Z"/><defs><linearGradient id="gradient_6" gradientUnits="userSpaceOnUse" x1="594.19592" y1="346.70383" x2="522.76642" y2="339.92456"><stop offset="0" stop-color="#64ACC2"/><stop offset="1" stop-color="#7899C5"/></linearGradient></defs><path fill="url(#gradient_6)" d="M521.624 365.572C520.139 366.248 519.911 366.475 518.267 366.583L517.602 365.909C516.707 355.956 516.978 343.484 521.633 334.437C525.984 325.966 533.571 319.609 542.673 316.808C560.841 311.09 582.018 318.47 593.274 333.59C595.35 336.378 598.213 340.51 599.244 343.823C598.221 344.925 598.059 344.535 595.974 344.617C585.41 345.537 579.059 346.868 569.439 351.646C564.337 347.197 559.301 342.673 554.332 338.076C554.145 333.397 552.111 328.947 546.643 329.434C544.703 329.613 542.921 330.581 541.714 332.112C539.136 335.447 540.579 339.128 543.01 341.991C538.504 354.49 533.432 359.823 521.624 365.572Z"/><path fill="#A4C9E1" d="M521.624 365.572C520.139 366.248 519.911 366.475 518.267 366.583L517.602 365.909C516.707 355.956 516.978 343.484 521.633 334.437C525.984 325.966 533.571 319.609 542.673 316.808C560.841 311.09 582.018 318.47 593.274 333.59C595.35 336.378 598.213 340.51 599.244 343.823C598.221 344.925 598.059 344.535 595.974 344.617C587.556 324.868 560.501 313.168 540.487 322.01C532.584 325.449 526.422 331.959 523.422 340.038C520.616 347.656 521.423 357.421 521.624 365.572Z"/><path fill="#A67FCF" d="M426.73 344.761L424.823 344.317C424.317 341.851 426.424 339.639 427.7 337.528C439.93 317.295 470.265 307.199 490.832 321.411C498.656 326.884 503.987 335.239 505.654 344.64C506.224 347.772 507.179 363.958 505.931 366.021C504.289 366.514 504.577 366.251 502.578 365.6C490.462 360.053 485.68 354.327 480.945 341.975C482.207 340.342 483.232 338.889 483.425 336.767C483.61 334.832 482.992 332.905 481.715 331.439C480.399 329.967 478.52 329.122 476.545 329.113C474.653 329.119 472.849 329.914 471.569 331.307C469.538 333.492 469.609 335.488 469.644 338.294C464.7 342.432 459.538 347.416 454.777 351.847C447.425 348.087 434.989 343.728 426.73 344.761Z"/><path fill="#CEAFEB" d="M426.73 344.761L424.823 344.317C424.317 341.851 426.424 339.639 427.7 337.528C439.93 317.295 470.265 307.199 490.832 321.411C498.656 326.884 503.987 335.239 505.654 344.64C506.224 347.772 507.179 363.958 505.931 366.021C504.289 366.514 504.577 366.251 502.578 365.6C502.537 359.478 502.827 352.576 501.984 346.675C497.727 316.867 462.41 311.361 441.495 328.133C434.527 333.722 431.633 337.395 426.73 344.761Z"/><path fill="#719FC4" d="M517.437 422.149C520.022 418.354 523.375 415.146 527.28 412.73C540.544 404.523 557.751 406.441 566.382 420.532C567.785 422.889 568.152 423.669 569.104 426.243C565.869 429.292 562.995 431.944 559.595 434.796C555.012 433.099 551.143 432.22 546.383 434.519C543.318 435.98 540.999 438.652 539.986 441.894C538.533 446.582 539.825 450.244 542.042 454.304C538.559 458.374 534.668 463.147 531.03 467.003L521.392 467.046C519.957 467.026 519.372 466.953 517.985 466.767C516.888 465.073 517.413 427.699 517.437 422.149Z"/><path fill="#A4C9E1" d="M517.437 422.149C520.022 418.354 523.375 415.146 527.28 412.73C540.544 404.523 557.751 406.441 566.382 420.532L565.261 421.789C563.765 421.086 561.467 418.832 559.984 417.695C547.447 408.081 529.579 410.713 521.127 424.441C520.976 437.721 521.858 454.479 521.392 467.046C519.957 467.026 519.372 466.953 517.985 466.767C516.888 465.073 517.413 427.699 517.437 422.149Z"/><path fill="#A67FCF" d="M455.311 426.399C463.115 401.602 492.422 403.467 506.112 421.767C506.63 431.992 506.257 442.68 506.367 452.949C506.394 455.419 506.554 464.72 506.119 466.517C504.905 467.243 504.022 467.108 502.601 467.136C499.909 466.959 495.66 467.073 492.85 467.059C490.085 464.235 484.99 457.62 482.021 454.232C489.459 440.09 478.483 428.887 464.077 435.009C462.314 433.452 456.033 428.034 455.311 426.399Z"/><path fill="#CEAFEB" d="M455.311 426.399C463.115 401.602 492.422 403.467 506.112 421.767C506.63 431.992 506.257 442.68 506.367 452.949C506.394 455.419 506.554 464.72 506.119 466.517C504.905 467.243 504.022 467.108 502.601 467.136C501.901 455.15 502.539 436.767 502.459 424.039C499.995 420.85 498.62 419.147 495.347 416.711C489.82 412.525 482.79 410.854 475.971 412.105C467.856 413.516 462.567 418.322 458.251 424.812C457.121 426.511 456.86 426.247 455.311 426.399Z"/><path fill="#A67FCF" d="M458.873 354.422C462.162 351.241 468.738 344.523 472.313 342.475C477.356 341.883 478.076 347.446 479.912 351.126C484.938 361.199 492.328 366.091 502.31 370.626C504.493 371.476 505 371.254 506.227 372.808C506.835 382.265 506.163 397.032 506.197 407.003L502.256 404.084C496.277 400.621 492.241 399.187 485.58 397.756C481.705 377.303 475.366 366.992 458.873 354.422Z"/><path fill="#CEAFEB" d="M502.31 370.626C504.493 371.476 505 371.254 506.227 372.808C506.835 382.265 506.163 397.032 506.197 407.003L502.256 404.084C502.263 393.441 501.876 381.083 502.31 370.626Z"/><path fill="#719FC4" d="M521 370.521C536.848 364.136 540.42 358.791 547.482 344.366C550.48 338.242 561.904 351.14 564.983 354.292C550.601 364.743 539.639 379.465 538.294 397.726C531.249 399.157 527.956 400.381 521.615 403.941L517.531 406.933C517.549 396.497 516.885 382.413 517.637 372.357C518.688 371.068 519.199 371.216 521 370.521Z"/><path fill="#A4C9E1" d="M517.531 406.933C517.549 396.497 516.885 382.413 517.637 372.357C518.688 371.068 519.199 371.216 521 370.521C522.077 373.398 521.488 398.64 521.615 403.941L517.531 406.933Z"/><path fill="#A67FCF" d="M550.377 437.772C553.334 437.095 556.427 438.072 558.458 440.325C560.49 442.578 561.143 445.754 560.165 448.626C559.187 451.498 556.731 453.615 553.747 454.16C549.272 454.976 544.964 452.069 544.048 447.613C543.132 443.158 545.943 438.787 550.377 437.772Z"/><path fill="#CEAFEB" d="M469.364 437.857C472.245 437.036 475.346 437.827 477.481 439.929C479.616 442.031 480.457 445.118 479.681 448.012C478.906 450.906 476.634 453.16 473.734 453.912C469.323 455.056 464.813 452.44 463.616 448.044C462.42 443.647 464.982 439.106 469.364 437.857Z"/></svg>